<?xml version="1.0" encoding="UTF-8" standalone="no"?>
<!DOCTYPE svg PUBLIC "-//W3C//DTD SVG 1.1//EN"
 "http://www.w3.org/Graphics/SVG/1.1/DTD/svg11.dtd">
<!-- Generated by graphviz version 12.2.1 (0)
 -->
<!-- Title: FSM Pages: 1 -->
<svg width="604pt" height="312pt"
 viewBox="0.00 0.00 603.60 312.25" xmlns="http://www.w3.org/2000/svg" xmlns:xlink="http://www.w3.org/1999/xlink">
<g id="graph0" class="graph" transform="scale(1 1) rotate(0) translate(4 308.25)">
<title>FSM</title>
<polygon fill="white" stroke="none" points="-4,4 -4,-308.25 599.6,-308.25 599.6,4 -4,4"/>
<!-- init -->
<g id="node1" class="node">
<title>init</title>
<ellipse fill="black" stroke="black" cx="1.8" cy="-144" rx="1.8" ry="1.8"/>
</g>
<!-- RESET -->
<g id="node2" class="node">
<title>RESET</title>
<ellipse fill="none" stroke="black" cx="104.1" cy="-144" rx="54" ry="54"/>
<text text-anchor="middle" x="104.1" y="-139.32" font-family="Times,serif" font-size="14.00">Reset</text>
</g>
<!-- init&#45;&gt;RESET -->
<g id="edge1" class="edge">
<title>init&#45;&gt;RESET</title>
<path fill="none" stroke="black" d="M3.93,-144C7.93,-144 22.14,-144 38.61,-144"/>
<polygon fill="black" stroke="black" points="38.15,-147.5 48.15,-144 38.15,-140.5 38.15,-147.5"/>
<text text-anchor="middle" x="26.85" y="-147.95" font-family="Times,serif" font-size="14.00">R</text>
</g>
<!-- IDLE -->
<g id="node3" class="node">
<title>IDLE</title>
<ellipse fill="none" stroke="black" cx="249.1" cy="-144" rx="54" ry="54"/>
<text text-anchor="middle" x="249.1" y="-139.32" font-family="Times,serif" font-size="14.00">Idle</text>
</g>
<!-- RESET&#45;&gt;IDLE -->
<g id="edge2" class="edge">
<title>RESET&#45;&gt;IDLE</title>
<path fill="none" stroke="black" d="M158.35,-144C166.54,-144 175.07,-144 183.47,-144"/>
<polygon fill="black" stroke="black" points="183.29,-147.5 193.29,-144 183.29,-140.5 183.29,-147.5"/>
</g>
<!-- READ_REQ -->
<g id="node4" class="node">
<title>READ_REQ</title>
<ellipse fill="none" stroke="black" cx="541.6" cy="-215" rx="54" ry="54"/>
<text text-anchor="middle" x="541.6" y="-210.32" font-family="Times,serif" font-size="14.00">Read</text>
</g>
<!-- IDLE&#45;&gt;READ_REQ -->
<g id="edge3" class="edge">
<title>IDLE&#45;&gt;READ_REQ</title>
<path fill="none" stroke="black" d="M292.75,-176.07C301.73,-181.52 311.42,-186.53 321.1,-190 371.09,-207.92 431.21,-213.77 475.88,-215.36"/>
<polygon fill="black" stroke="black" points="475.57,-218.85 485.66,-215.64 475.77,-211.86 475.57,-218.85"/>
<text text-anchor="middle" x="395.35" y="-218.87" font-family="Times,serif" font-size="14.00">NOT(we) &amp; obi_req_i</text>
</g>
<!-- WRITE_REQ -->
<g id="node5" class="node">
<title>WRITE_REQ</title>
<ellipse fill="none" stroke="black" cx="541.6" cy="-54" rx="54" ry="54"/>
<text text-anchor="middle" x="541.6" y="-49.33" font-family="Times,serif" font-size="14.00">Write</text>
</g>
<!-- IDLE&#45;&gt;WRITE_REQ -->
<g id="edge4" class="edge">
<title>IDLE&#45;&gt;WRITE_REQ</title>
<path fill="none" stroke="black" d="M302.05,-132.06C308.46,-130.6 314.93,-129.14 321.1,-127.75 387.04,-112.93 406.6,-119.46 469.6,-95 474.86,-92.96 480.18,-90.57 485.44,-87.98"/>
<polygon fill="black" stroke="black" points="486.8,-91.22 494.07,-83.52 483.58,-85.01 486.8,-91.22"/>
<text text-anchor="middle" x="395.35" y="-131.7" font-family="Times,serif" font-size="14.00">we &amp; obi_req_i</text>
</g>
<!-- READ_REQ&#45;&gt;IDLE -->
<g id="edge5" class="edge">
<title>READ_REQ&#45;&gt;IDLE</title>
<path fill="none" stroke="black" d="M497.97,-182.75C488.99,-177.27 479.29,-172.23 469.6,-168.75 441.97,-158.83 368.87,-151.92 314.58,-147.97"/>
<polygon fill="black" stroke="black" points="315.04,-144.49 304.81,-147.28 314.54,-151.48 315.04,-144.49"/>
<text text-anchor="middle" x="395.35" y="-172.7" font-family="Times,serif" font-size="14.00">rready</text>
</g>
<!-- READ_REQ&#45;&gt;READ_REQ -->
<g id="edge7" class="edge">
<title>READ_REQ&#45;&gt;READ_REQ</title>
<path fill="none" stroke="black" d="M514.24,-262.09C515.06,-276.1 524.18,-287 541.6,-287 554.12,-287 562.36,-281.37 566.3,-273"/>
<polygon fill="black" stroke="black" points="569.63,-274.1 568.6,-263.56 562.83,-272.45 569.63,-274.1"/>
<text text-anchor="middle" x="541.6" y="-290.95" font-family="Times,serif" font-size="14.00">NOT(rready)</text>
</g>
<!-- WRITE_REQ&#45;&gt;IDLE -->
<g id="edge6" class="edge">
<title>WRITE_REQ&#45;&gt;IDLE</title>
<path fill="none" stroke="black" d="M487.47,-49C441.34,-46.88 373.84,-49.25 321.1,-73.75 310.37,-78.73 300.32,-86.05 291.35,-94.1"/>
<polygon fill="black" stroke="black" points="289,-91.5 284.19,-100.94 293.83,-96.57 289,-91.5"/>
<text text-anchor="middle" x="395.35" y="-77.7" font-family="Times,serif" font-size="14.00">rready</text>
</g>
<!-- WRITE_REQ&#45;&gt;WRITE_REQ -->
<g id="edge8" class="edge">
<title>WRITE_REQ&#45;&gt;WRITE_REQ</title>
<path fill="none" stroke="black" d="M514.24,-101.09C515.06,-115.1 524.18,-126 541.6,-126 554.12,-126 562.36,-120.37 566.3,-112"/>
<polygon fill="black" stroke="black" points="569.63,-113.1 568.6,-102.56 562.83,-111.45 569.63,-113.1"/>
<text text-anchor="middle" x="541.6" y="-129.95" font-family="Times,serif" font-size="14.00">NOT(rready)</text>
</g>
</g>
</svg>
