<?xml version="1.0" encoding="UTF-8" standalone="no"?>
<!DOCTYPE svg PUBLIC "-//W3C//DTD SVG 1.1//EN"
 "http://www.w3.org/Graphics/SVG/1.1/DTD/svg11.dtd">
<!-- Generated by graphviz version 12.2.1 (0)
 -->
<!-- Title: FSM Pages: 1 -->
<svg width="754pt" height="348pt"
 viewBox="0.00 0.00 754.35 348.00" xmlns="http://www.w3.org/2000/svg" xmlns:xlink="http://www.w3.org/1999/xlink">
<g id="graph0" class="graph" transform="scale(1 1) rotate(0) translate(4 344)">
<title>FSM</title>
<polygon fill="white" stroke="none" points="-4,4 -4,-344 750.35,-344 750.35,4 -4,4"/>
<!-- init -->
<g id="node1" class="node">
<title>init</title>
<ellipse fill="black" stroke="black" cx="1.8" cy="-170" rx="1.8" ry="1.8"/>
</g>
<!-- RESET -->
<g id="node2" class="node">
<title>RESET</title>
<ellipse fill="none" stroke="black" cx="104.1" cy="-170" rx="54" ry="54"/>
<text text-anchor="middle" x="104.1" y="-165.32" font-family="Times,serif" font-size="14.00">Reset</text>
</g>
<!-- init&#45;&gt;RESET -->
<g id="edge1" class="edge">
<title>init&#45;&gt;RESET</title>
<path fill="none" stroke="black" d="M3.93,-170C7.93,-170 22.14,-170 38.61,-170"/>
<polygon fill="black" stroke="black" points="38.15,-173.5 48.15,-170 38.15,-166.5 38.15,-173.5"/>
<text text-anchor="middle" x="26.85" y="-173.95" font-family="Times,serif" font-size="14.00">R</text>
</g>
<!-- IDLE -->
<g id="node3" class="node">
<title>IDLE</title>
<ellipse fill="none" stroke="black" cx="249.1" cy="-170" rx="54" ry="54"/>
<text text-anchor="middle" x="249.1" y="-165.32" font-family="Times,serif" font-size="14.00">Idle</text>
</g>
<!-- RESET&#45;&gt;IDLE -->
<g id="edge2" class="edge">
<title>RESET&#45;&gt;IDLE</title>
<path fill="none" stroke="black" d="M158.35,-170C166.54,-170 175.07,-170 183.47,-170"/>
<polygon fill="black" stroke="black" points="183.29,-173.5 193.29,-170 183.29,-166.5 183.29,-173.5"/>
</g>
<!-- READ_REQ -->
<g id="node4" class="node">
<title>READ_REQ</title>
<ellipse fill="none" stroke="black" cx="513.1" cy="-286" rx="54" ry="54"/>
<text text-anchor="middle" x="513.1" y="-281.32" font-family="Times,serif" font-size="14.00">Read Request</text>
</g>
<!-- IDLE&#45;&gt;READ_REQ -->
<g id="edge3" class="edge">
<title>IDLE&#45;&gt;READ_REQ</title>
<path fill="none" stroke="black" d="M295.77,-197.71C304.08,-202.37 312.76,-206.98 321.1,-211 363.64,-231.49 413.33,-250.87 451.36,-264.79"/>
<polygon fill="black" stroke="black" points="449.74,-267.93 460.34,-268.05 452.13,-261.35 449.74,-267.93"/>
<text text-anchor="middle" x="381.1" y="-263.89" font-family="Times,serif" font-size="14.00">NOT(we) &amp; req_i</text>
</g>
<!-- WRITE_REQ -->
<g id="node6" class="node">
<title>WRITE_REQ</title>
<ellipse fill="none" stroke="black" cx="513.1" cy="-54" rx="54" ry="54"/>
<text text-anchor="middle" x="513.1" y="-49.33" font-family="Times,serif" font-size="14.00">Write Request</text>
</g>
<!-- IDLE&#45;&gt;WRITE_REQ -->
<g id="edge4" class="edge">
<title>IDLE&#45;&gt;WRITE_REQ</title>
<path fill="none" stroke="black" d="M289.52,-133.86C299.34,-126.13 310.19,-118.55 321.1,-112.75 361.25,-91.41 410.35,-76.52 448.72,-67.07"/>
<polygon fill="black" stroke="black" points="449.36,-70.52 458.27,-64.79 447.73,-63.71 449.36,-70.52"/>
<text text-anchor="middle" x="381.1" y="-116.7" font-family="Times,serif" font-size="14.00">we &amp; req_i</text>
</g>
<!-- READ_GNT -->
<g id="node5" class="node">
<title>READ_GNT</title>
<ellipse fill="none" stroke="black" cx="692.35" cy="-235" rx="54" ry="54"/>
<text text-anchor="middle" x="692.35" y="-230.32" font-family="Times,serif" font-size="14.00">Read Granted</text>
</g>
<!-- READ_REQ&#45;&gt;READ_GNT -->
<g id="edge5" class="edge">
<title>READ_REQ&#45;&gt;READ_GNT</title>
<path fill="none" stroke="black" d="M565.37,-271.25C585.3,-265.51 608.32,-258.89 629.19,-252.89"/>
<polygon fill="black" stroke="black" points="630.1,-256.27 638.74,-250.14 628.16,-249.54 630.1,-256.27"/>
<text text-anchor="middle" x="602.72" y="-269.02" font-family="Times,serif" font-size="14.00">gnt_i</text>
</g>
<!-- READ_GNT&#45;&gt;IDLE -->
<g id="edge7" class="edge">
<title>READ_GNT&#45;&gt;IDLE</title>
<path fill="none" stroke="black" d="M639.64,-221.38C617.44,-215.9 591.12,-209.92 567.1,-205.75 480.23,-190.68 378.82,-180.53 314.54,-175.01"/>
<polygon fill="black" stroke="black" points="315.15,-171.54 304.89,-174.19 314.56,-178.52 315.15,-171.54"/>
<text text-anchor="middle" x="513.1" y="-209.7" font-family="Times,serif" font-size="14.00">rvalid</text>
</g>
<!-- WRITE_GNT -->
<g id="node7" class="node">
<title>WRITE_GNT</title>
<ellipse fill="none" stroke="black" cx="692.35" cy="-97" rx="54" ry="54"/>
<text text-anchor="middle" x="692.35" y="-92.33" font-family="Times,serif" font-size="14.00">Write Granted</text>
</g>
<!-- WRITE_REQ&#45;&gt;WRITE_GNT -->
<g id="edge6" class="edge">
<title>WRITE_REQ&#45;&gt;WRITE_GNT</title>
<path fill="none" stroke="black" d="M565.84,-66.55C585.42,-71.3 607.91,-76.76 628.4,-81.73"/>
<polygon fill="black" stroke="black" points="627.53,-85.12 638.07,-84.07 629.18,-78.32 627.53,-85.12"/>
<text text-anchor="middle" x="602.72" y="-83.3" font-family="Times,serif" font-size="14.00">gnt_i</text>
</g>
<!-- WRITE_GNT&#45;&gt;IDLE -->
<g id="edge8" class="edge">
<title>WRITE_GNT&#45;&gt;IDLE</title>
<path fill="none" stroke="black" d="M638.85,-105.69C557.6,-119.13 401.68,-144.92 314.01,-159.43"/>
<polygon fill="black" stroke="black" points="313.67,-155.93 304.38,-161.02 314.82,-162.84 313.67,-155.93"/>
<text text-anchor="middle" x="513.1" y="-138.67" font-family="Times,serif" font-size="14.00">rvalid</text>
</g>
</g>
</svg>
